PathFileType	4	(X/Y/Z)	C:/Users/beibeiliu/ov580/test_trc/User2\sequence.16_training_dense_left.trc
DataRate	CameraRate	NumFrames	NumMarkers	Units	OrigDataRate	OrigDataStartFrame	OrigNumFrames
120	120	23	19	mm	120	29	86
Frame#	Time	ThumbCMC			ThumbMCP			ThumbIP			ThumbTip			IndexMCP			IndexPIP			IndexTip			MiddleMCP			MiddlePIP			MiddleTip			RingMCP			RingPIP			RingTip			PinkyMCP			PinkyPIP			PinkyTip			BackHand1			BackHand2			BackHand3	
		X0	Y0	Z0	X1	Y1	Z1	X2	Y2	Z2	X3	Y3	Z3	X4	Y4	Z4	X5	Y5	Z5	X6	Y6	Z6	X7	Y7	Z7	X8	Y8	Z8	X9	Y9	Z9	X10	Y10	Z10	X11	Y11	Z11	X12	Y12	Z12	X13	Y13	Z13	X14	Y14	Z14	X15	Y15	Z15	X16	Y16	Z16	X17	Y17	Z17	X18	Y18	Z18	
28	0.233333	-193.748	-12.9428	-78.0607	-193.067	-5.10903	-102.897	-195.19	-2.16371	-138.822	-193.104	2.04293	-162.516	-164.029	-46.6573	-150.804	-137.458	-32.5928	-160.643	-134.403	-10.6431	-127.218	-149.4	-58.7759	-146.841	-119.448	-34.9451	-149.512	-127.318	-22.616	-115.118	-131.534	-72.9882	-138.827	-111.687	-49.3393	-143.295	-121.443	-33.2376	-114.372	-133.535	-89.4902	-111.499	-121.685	-99.4843	-136.828	-114.217	-106.463	-159.908	-164.073	-80.0162	-82.8832	-177.202	-71.9558	-47.5743	-194.002	-53.1377	-77.2846	
29	0.241667	-182.086	-3.84891	-70.6997	-183.417	3.77861	-100.401	-188.559	15.5429	-133.551	-185.412	19.2158	-158.364	-175.684	-40.7375	-148.813	-145.723	-32.8827	-163.284	-134.022	-15.2054	-131.3	-163.107	-61.2488	-150.604	-129.657	-47.14	-153.866	-131.885	-30.3024	-115.607	-154.967	-77.2012	-143.177	-127.85	-64.5357	-149.906	-124.739	-48.7754	-118.429	-159.172	-93.2068	-118.249	-156.374	-106.31	-144.985	-153.784	-112.622	-169.158	-182.386	-71.4064	-81.7278	-185.643	-66.5675	-51.1598	-198.77	-39.9044	-74.6127	
30	0.25	-165.371	-5.57141	-68.9024	-165.318	11.2957	-96.5925	-164.476	18.2048	-126.216	-164.605	24.4312	-153.365	-176.987	-26.5037	-151.171	-150.234	-34.6961	-162.583	-129.064	-27.8448	-128.535	-175.732	-52.9269	-147.766	-138.592	-54.5822	-155.69	-131.256	-45.0355	-118.405	-174.035	-73.0635	-146.836	-142.21	-72.6201	-153.023	-134.24	-55.5315	-122.436	-183.454	-90.473	-121.661	-186.408	-99.4622	-145.197	-191.775	-105.582	-174.197	-194.439	-67.7367	-83.441	-191.476	-62.172	-48.5984	-194.793	-30.1621	-71.0577	
31	0.258333	-144.475	-8.72877	-61.8272	-137.649	8.19205	-89.8754	-137.876	17.5521	-118.606	-134.208	29.1081	-143.412	-170.679	-16.4047	-145.406	-147.05	-28.0023	-161.518	-124.743	-35.1812	-132.083	-176.759	-36.9194	-149.519	-145.651	-51.9199	-156.235	-131.978	-49.3316	-118.652	-186.271	-59.7778	-142.973	-160.881	-67.2393	-157.095	-140.914	-63.3922	-124.986	-199.937	-75.1367	-118.449	-210.872	-78.824	-146.416	-216.701	-78.3046	-168.033	-198.213	-50.4575	-79.7691	-190.986	-50.1958	-45.5257	-180	-15.7154	-66.7358	
32	0.266667	-127.96	-19.8254	-58.841	-117.303	-6.2488	-83.1307	-110.764	9.64866	-113.085	-109.092	16.7351	-136.794	-157.013	-4.5936	-134.663	-143.469	-26.7827	-157.69	-125.997	-44.9442	-131.272	-174.724	-23.9293	-141.174	-152.918	-47.7843	-158.487	-136.27	-55.8924	-122.229	-188.508	-38.3586	-139.684	-171.154	-57.0947	-157.756	-149.628	-66.0604	-128.967	-208.451	-54.3665	-116.884	-216.794	-47.7919	-142.202	-227.859	-43.5104	-165.854	-195.011	-36.5817	-76.0947	-186.366	-42.4722	-41.7952	-167.374	-17.8062	-59.6128	
33	0.275	-114.008	-29.8668	-53.615	-101.22	-17.7229	-79.2462	-92.3735	-1.71478	-110.561	-88.3666	3.11673	-130.811	-145.268	-3.64108	-129.328	-139.312	-24.0161	-154.473	-126.008	-48.613	-130.318	-163.448	-12.2371	-138.279	-153.215	-39.2883	-157.014	-139.244	-58.5279	-125.754	-182.182	-23.2654	-136.425	-172.581	-43.7782	-154.744	-154.05	-63.1636	-127.644	-207.412	-32.5449	-114.244	-213.341	-24.7481	-136.896	-226.222	-15.9997	-153.91	-182.849	-23.6993	-70.8616	-180.232	-33.3269	-40.8322	-153.545	-14.2535	-54.9289	
34	0.283333	-105.919	-39.1847	-50.0245	-86.6761	-29.4306	-73.6932	-76.9448	-16.4756	-102.564	-73.2292	-8.55958	-127.448	-127.112	-4.73411	-125.03	-126.404	-28.6819	-151.015	-120.765	-53.4351	-131.06	-148.77	-9.58092	-136.113	-143.853	-40.539	-154.004	-133.114	-60.2743	-120.074	-172.445	-17.882	-131.73	-160.411	-40.1693	-153.259	-148.678	-63.2237	-126.038	-193.865	-27.1276	-107.851	-201.521	-13.5053	-134.036	-208.368	-1.173	-152.745	-170.29	-20.2443	-67.6942	-170.298	-32.3954	-34.402	-140.743	-16.9581	-52.116	
35	0.291667	-92.8743	-45.2416	-44.563	-75.3437	-34.5205	-70.7619	-63.1623	-25.9926	-97.6153	-54.7359	-20.7925	-122.45	-107.034	-12.7431	-126.006	-103.087	-39.6952	-149.171	-103.264	-62.6318	-126.281	-133.126	-19.173	-136.782	-124.019	-50.3869	-150.954	-117.627	-69.4934	-117.105	-154.523	-24.5805	-133.492	-143.506	-50.4565	-151.639	-133.664	-69.1169	-124.203	-178.082	-25.432	-114.331	-182.155	-17.1426	-138.745	-188.632	-9.14176	-156.492	-158.945	-20.5312	-70.6566	-160.823	-29.7032	-36.5462	-126.469	-21.7458	-50.4067	
36	0.3	-85.4544	-40.3293	-39.5474	-67.3096	-34.3632	-64.697	-50.0045	-28.2204	-90.0171	-31.9892	-23.2742	-111.214	-94.6857	-24.3836	-125.703	-87.8601	-48.8851	-143.993	-88.3585	-71.8233	-115.077	-114.121	-30.7986	-134.689	-102.347	-62.5971	-146.277	-104.738	-78.5958	-108.324	-136.559	-37.8252	-134.059	-124.067	-62.6512	-148.733	-114.444	-77.6662	-112.465	-159.49	-37.9662	-121.084	-160.549	-34.749	-145.511	-167.434	-28.4613	-168.972	-151.562	-27.4035	-72.7849	-154.069	-28.8719	-41.6663	-119.854	-20.4529	-52.1799	
37	0.308333	-87.1341	-28.8433	-40.3417	-66.4021	-23.7021	-63.4544	-46.111	-18.6787	-84.6428	-27.0809	-13.4211	-103.583	-84.5267	-31.9642	-127.648	-70.3676	-58.8553	-133.07	-69.3546	-70.3203	-99.3531	-105.203	-43.0539	-132.261	-86.1487	-74.284	-134.816	-89.0479	-80.1018	-95.6222	-124.283	-54.9586	-134.686	-100.502	-79.2812	-138.18	-99.7079	-85.24	-100.165	-151.077	-57.1688	-118.786	-150.176	-59.6988	-147.1	-148.33	-56.0913	-169.589	-144.922	-32.9932	-75.2873	-157.753	-33.7415	-46.7019	-118.815	-14.914	-57.1609	
38	0.316667	-96.0399	-17.5909	-41.5481	-70.8217	-10.0295	-61.4613	-50.9864	-3.07618	-87.1468	-35.5924	-3.06535	-103.211	-80.7419	-32.1529	-121.715	-54.427	-55.4204	-120.006	-60.1922	-62.5308	-85.3187	-91.5992	-49.1955	-128.189	-67.2694	-76.5699	-119.779	-75.5812	-72.2836	-78.8098	-105.608	-67.8984	-130.29	-80.6407	-86.9681	-125.714	-80.2556	-83.2417	-89.2027	-135.336	-75.9185	-118.992	-133.426	-85.2549	-143.107	-130.445	-90.3832	-170.946	-144.991	-47.3703	-79.6133	-155.44	-39.5108	-51.0386	-127.481	-14.6253	-62.1791	
39	0.325	-108.845	-10.1625	-44.6856	-87.5115	-2.16301	-63.9373	-66.3971	7.58348	-94.5714	-49.1835	14.6162	-112.484	-75.1481	-34.3799	-120.32	-49.0763	-45.191	-112.871	-54.4599	-44.3994	-74.2158	-81.725	-58.3593	-123.291	-52.6568	-68.3143	-104.413	-65.0877	-61.5545	-69.8981	-90.1655	-74.3691	-120.509	-61.4867	-83.5522	-108.592	-70.3796	-72.9709	-73.2684	-117.111	-91.8058	-112.214	-107.577	-102.274	-134.013	-97.0675	-111.027	-157.24	-140.559	-56.7762	-80.0601	-156.181	-54.7182	-52.4676	-136.074	-20.9093	-64.8782	
40	0.333333	-125.835	0.381149	-52.4722	-108.073	9.23135	-74.0727	-89.499	18.9635	-101.92	-73.9881	28.8312	-118.004	-77.2067	-29.575	-118.704	-49.1832	-27.132	-105.822	-56.7449	-25.1879	-71.4281	-74.7306	-52.304	-115.914	-45.331	-48.6263	-96.8561	-64.0142	-34.76	-63.907	-75.4536	-73.4784	-109.312	-47.5037	-66.1216	-95.9209	-67.4909	-50.7372	-65.6423	-97.04	-91.3549	-98.0686	-80.3285	-103.896	-116.783	-67.1958	-108.518	-138.718	-131.864	-70.3855	-78.6669	-153.521	-64.0938	-51.3249	-145.04	-32.0854	-70.4377	
41	0.341667	-146.24	-0.400263	-59.1224	-130.623	12.4207	-77.7112	-111.391	24.7533	-111.192	-97.8296	32.3952	-126.959	-86.0531	-19.4394	-117.914	-57.1768	-9.66564	-108.593	-65.5805	-5.14324	-73.3715	-72.0991	-41.8517	-112.191	-47.256	-25.5781	-92.4978	-72.399	-19.8161	-60.4346	-67.909	-61.8053	-100.686	-46.0518	-41.8765	-88.2922	-70.8789	-30.4387	-63.3046	-80.257	-85.9493	-87.9606	-59.4724	-89.3147	-104.53	-40.451	-95.5293	-123.085	-126.445	-69.1852	-73.7514	-150.446	-66.1694	-50.5295	-150.831	-35.9642	-72.0933	
42	0.35	-156.409	-5.95448	-65.9266	-150.245	11.7311	-88.9198	-128.679	20.0717	-117.021	-117.761	31.9458	-132.884	-94.4249	-11.1362	-121.924	-67.3357	6.35916	-108.138	-83.0459	11.9016	-75.0293	-73.7363	-28.9142	-112.351	-54.1985	-8.48066	-91.9739	-85.6587	-2.04798	-64.6104	-66.4037	-46.4796	-97.4064	-48.7848	-23.9744	-81.48	-78.3491	-16.4591	-62.0864	-72.1488	-71.8363	-82.6919	-50.0699	-70.8972	-98.2598	-31.0928	-71.6483	-113.975	-124.664	-66.6142	-71.4052	-147.902	-69.317	-49.2537	-153.217	-41.5048	-74.6982	
43	0.358333	-166.948	-11.1017	-70.8843	-158.712	2.33691	-94.6455	-146.953	16.0756	-122.463	-133.91	28.1518	-145.211	-96.9006	-11.2653	-124.488	-78.1064	13.7184	-117.59	-91.0862	18.7635	-83.4637	-80.7526	-25.4286	-114.521	-64.6008	5.35822	-97.9574	-91.4188	3.24017	-70.1963	-66.8805	-34.4945	-101.668	-54.6348	-11.3679	-88.635	-84.521	-9.67427	-63.6439	-70.5491	-60.4877	-87.0543	-48.4389	-58.8711	-97.7328	-30.7529	-57.7653	-111.726	-121.594	-64.577	-76.2817	-144.012	-73.8194	-50.2985	-156.408	-44.9521	-78.5598	
44	0.366667	-170.23	-20.1922	-71.8024	-169.062	-4.75611	-101.962	-157.085	5.5318	-136.032	-146.105	14.9841	-152.257	-106.97	-12.9419	-131.233	-86.5486	11.8074	-125.54	-103.324	17.5769	-90.8148	-88.7352	-23.7719	-121.794	-71.1577	4.81844	-107.863	-100.873	5.85668	-78.1528	-69.2559	-31.8777	-107.32	-60.515	-6.43652	-96.8405	-90.1911	-6.96156	-71.2689	-73.5145	-57.1745	-87.5555	-47.2036	-53.8538	-103.432	-30.1635	-50.7013	-121.449	-121.22	-66.212	-76.4551	-144.202	-72.9459	-54.8979	-156.642	-50.9208	-85.2199	
45	0.375	-174.342	-26.3117	-77.8472	-172.384	-15.5944	-107.746	-164.481	-6.37481	-136.157	-160.238	2.95679	-156.887	-113.498	-20.4373	-138.875	-96.7909	7.79326	-134.003	-112.889	14.9784	-103.038	-92.2815	-26.4121	-129.832	-79.933	3.37914	-113.007	-107.399	2.54702	-86.6239	-78.7631	-35.3478	-116.816	-68.016	-8.07427	-108.522	-97.4847	-8.68522	-81.1395	-72.4714	-58.7076	-96.1476	-51.8562	-54.9978	-108.595	-37.3732	-53.8442	-126.069	-119.682	-71.658	-76.7685	-144.792	-78.4484	-54.45	-158.667	-58.1047	-83.8606	
46	0.383333	-179.296	-33.0319	-82.8885	-180.761	-22.8899	-109.883	-173.857	-17.4037	-140.926	-165.856	-10.7514	-165.187	-122.224	-30.9846	-144.757	-102.634	-4.46056	-145.369	-116.452	7.01769	-111.703	-100.876	-34.4393	-138.283	-89.0982	-0.72217	-125.342	-113.144	-3.08238	-95.8327	-81.6865	-45.0424	-120.565	-74.9691	-13.0785	-119.425	-97.8137	-10.3243	-89.8929	-78.0244	-64.1908	-102.486	-63.5848	-60.4664	-116.514	-45.5464	-58.5159	-134.623	-125.404	-74.3625	-82.9511	-144.726	-81.1	-53.9729	-162.999	-62.9606	-85.9801	
47	0.391667	-186.749	-36.0598	-83.6476	-183.325	-30.8159	-110.82	-186.14	-27.705	-147.691	-184.307	-20.918	-168.866	-131.064	-41.0014	-152.349	-115.214	-16.0884	-156.394	-125.663	2.78264	-125.032	-111.932	-47.6915	-142.586	-95.1154	-14.0542	-136.733	-121.242	-9.34334	-105.665	-90.7047	-52.7655	-130.958	-83.6452	-24.5321	-130.751	-105.043	-16.2721	-100.132	-90.8664	-71.2503	-106.673	-71.031	-71.0778	-126.11	-55.7078	-70.6272	-147.543	-132.679	-78.8533	-81.5828	-151.243	-84.8988	-59.1743	-170.925	-69.5081	-87.2634	
48	0.4	-193.839	-36.5882	-81.1804	-192.814	-31.887	-110.831	-198.566	-30.3153	-147.734	-193.2	-27.5997	-170.871	-147.015	-51.021	-156.039	-124.954	-27.2604	-162.499	-130.545	-6.23925	-132.869	-124.916	-58.5797	-148.119	-109.211	-24.1894	-148.01	-130.418	-16.7145	-114.37	-110.347	-65.8604	-137.067	-91.8134	-38.1164	-138.584	-116.3	-26.1218	-111.571	-101.713	-84.508	-114.67	-87.1403	-86.0993	-137.563	-76.1482	-88.0228	-155.209	-143.818	-86.491	-84.2688	-158.762	-87.371	-60.1858	-178.864	-73.3877	-84.6806	
49	0.408333	-198.615	-29.3581	-83.6541	-198.335	-25.5528	-108.868	-202.863	-22.8448	-143.678	-203.849	-18.4738	-168.852	-161.951	-52.8573	-159.846	-138.07	-32.0287	-166.842	-135.781	-12.9547	-139.049	-144.109	-65.2651	-155.578	-118.94	-39.4215	-155.384	-130.539	-27.7325	-116.035	-127.632	-79.17	-145.104	-108.152	-53.1218	-149.181	-117.519	-37.5993	-117.856	-128.268	-92.956	-118.14	-116.123	-99.2289	-144.735	-103.823	-108.14	-167.679	-162.15	-90.5801	-90.7269	-174.995	-85.3925	-60.54	-192.895	-67.6443	-85.9514	
50	0.416667	-187.714	-17.8037	-72.7002	-191.003	-10.9593	-103.609	-195.347	-4.01792	-135.352	-198.218	4.43579	-159.904	-178.862	-44.2275	-154.945	-145.882	-39.8551	-168.134	-132.499	-22.7316	-141.76	-164.343	-65.9732	-156.507	-130.655	-52.3284	-160.885	-128.097	-40.9679	-123.142	-156.162	-84.6913	-149.177	-124.88	-71.1022	-155.953	-125.587	-54.0039	-122.344	-157.093	-103.808	-128.484	-152.445	-112.387	-151.578	-150.984	-114.774	-176.32	-182.778	-87.3116	-89.4774	-189.054	-85.1358	-60.055	-201.193	-56.1021	-81.6877	
